<svg width="200" height="200" viewBox="0 0 200 200" fill="none" xmlns="http://www.w3.org/2000/svg">
<g clip-path="url(#clip0)">
<rect width="200" height="200"/>
<circle cx="100" cy="100" r="95" stroke="#28a745" stroke-width="10"/>
<path d="M59.456 102.776C59.456 113.816 62.336 122.792 68.096 129.704C73.952 136.616 81.824 140.072 91.712 140.072C101.696 140.072 111.44 137.624 120.944 132.728L122.528 143.672C111.776 148.376 101.216 150.728 90.848 150.728C80.48 150.728 71.84 148.424 64.928 143.816C58.112 139.112 53.12 133.208 49.952 126.104C46.784 119 45.2 111.224 45.2 102.776C45.2 86.648 49.904 73.448 59.312 63.176C68.72 52.904 81.248 47.768 96.896 47.768C104.096 47.768 111.872 49.064 120.224 51.656L116.768 61.736C110.144 59.72 103.52 58.712 96.896 58.712C85.184 58.712 76.016 62.648 69.392 70.52C62.768 78.392 59.456 89.144 59.456 102.776Z" fill="#28a745"/>
<line x1="132.657" y1="9.81998" x2="64.657" y2="183.82" stroke="#28a745" stroke-width="10"/>
</g>
<defs>
<clipPath id="clip0">
<rect width="200" height="200"/>
</clipPath>
</defs>
</svg>
