<?xml version="1.0" encoding="UTF-8"?>
<svg width="40px" height="40px" viewBox="0 0 40 40" version="1.1" xmlns="http://www.w3.org/2000/svg" xmlns:xlink="http://www.w3.org/1999/xlink">
    <title>Icons/Tokens/Dai</title>
    <g id="Icons/Tokens/Dai" stroke="none" stroke-width="1" fill="none" fill-rule="evenodd">
        <g id="Group">
            <circle id="Oval" fill="#F4B731" cx="20" cy="20" r="20"></circle>
            <path d="M28.9978,15.7914349 C27.5222,12.6344079 24.3234,10.4997654 20.0108,10.4997654 L13.0546,10.4997654 L13.0546,15.7914349 L28.9978,15.7914349 Z M13.0546,21.5121641 L29.8044,21.5121641 C29.8692,21.0420883 29.9024,20.5595469 29.9024,20.0665505 L29.9024,19.9979894 C29.9024,19.5160512 29.8708,19.0435628 29.8086,18.5825347 L13.0546,18.5825347 L13.0546,21.5121641 Z M13.0546,29.4962134 L13.0546,24.3032639 L28.9774,24.3032639 C27.4928,27.416259 24.3036,29.4962134 20.0108,29.4962134 L13.0546,29.4962134 Z M20.0108,8 L10.3554,8 L10.3554,15.7914349 L7,15.7914349 L7,18.5825347 L10.3554,18.5825347 L10.3554,21.5121641 L7,21.5121641 L7,24.3032639 L10.3554,24.3032639 L10.3554,32 L20.0108,32 C25.8178,32 30.2352,28.8568461 31.935,24.3032639 L35,24.3032639 L35,21.5121641 L32.6072,21.5121641 C32.6658,21.017157 32.6958,20.512097 32.6958,19.9979894 L32.6958,19.9294283 C32.6958,19.4730246 32.6722,19.0236579 32.6256,18.5825347 L35,18.5825347 L35,15.7914349 L31.9922,15.7914349 C30.336,11.1735138 25.8842,8 20.0108,8 L20.0108,8 Z" id="Fill-1" fill="#FFFFFF"></path>
        </g>
    </g>
</svg>