<svg width="200" height="200" viewBox="0 0 200 200" fill="none" xmlns="http://www.w3.org/2000/svg">
<g clip-path="url(#clip0)">
<rect width="200" height="200"/>
<circle cx="100" cy="100" r="95" stroke="#28a745" stroke-width="10"/>
<path d="M111.361 63.0783C104.337 62.0172 97.9916 62.0033 92.3251 63.0365C86.6585 64.0698 82.2977 66.3775 79.2428 69.9596C76.1878 73.5417 75.0392 77.4105 75.7969 81.566C76.8818 87.5159 80.8981 91.6139 87.8457 93.8601L109.835 101.268C122.116 105.469 129.152 112.48 130.943 122.302C132.424 130.424 130.723 137.419 125.84 143.286C120.958 149.153 113.275 153.042 102.792 154.954C92.3085 156.866 82.567 156.69 73.5672 154.428L75.3006 143.866C83.6649 145.853 91.5775 146.167 99.0385 144.807C106.594 143.429 111.899 140.949 114.954 137.367C118.009 133.785 119.158 129.916 118.4 125.761C117.315 119.811 113.299 115.713 106.351 113.466L84.3616 106.059C72.0807 101.858 65.0448 94.8462 63.2538 85.0242C61.7728 76.9021 63.4736 69.9075 68.3564 64.0405C73.2391 58.1734 80.5443 54.353 90.2719 52.5792C96.8829 51.3737 104.546 51.3913 113.262 52.6319L111.361 63.0783Z" fill="#28a745"/>
<line x1="132.657" y1="9.81998" x2="64.657" y2="183.82" stroke="#28a745" stroke-width="10"/>
</g>
<defs>
<clipPath id="clip0">
<rect width="200" height="200"/>
</clipPath>
</defs>
</svg>
